<svg xmlns="http://www.w3.org/2000/svg" viewBox="0 0 128 128" aria-hidden="true">
  <circle cx="64" cy="64" r="64" fill="#F1F8E9"/>
  <g transform="translate(64 64)">
    <rect x="-22" y="-34" width="14" height="68" rx="3" fill="#8BC34A"/>
    <rect x="-22" y="-14" width="14" height="3" fill="#558B2F"/>
    <rect x="-22" y="8" width="14" height="3" fill="#558B2F"/>
    <rect x="-22" y="-32" width="14" height="3" fill="#558B2F"/>
    <rect x="8" y="-26" width="14" height="60" rx="3" fill="#9CCC65"/>
    <rect x="8" y="-8" width="14" height="3" fill="#558B2F"/>
    <rect x="8" y="14" width="14" height="3" fill="#558B2F"/>
    <path d="M-22 -34 Q -30 -44 -22 -50 Q -14 -44 -12 -36" fill="#7CB342"/>
    <path d="M8 -26 Q 0 -36 8 -42 Q 16 -36 18 -28" fill="#7CB342"/>
    <path d="M22 -26 Q 30 -36 36 -30 Q 32 -22 22 -24" fill="#8BC34A"/>
    <ellipse cx="-14" cy="-22" rx="2" ry="1" fill="#33691E" opacity="0.4"/>
    <ellipse cx="16" cy="0" rx="2" ry="1" fill="#33691E" opacity="0.4"/>
  </g>
</svg>
