<svg xmlns="http://www.w3.org/2000/svg" viewBox="0 0 128 128" aria-hidden="true">
  <circle cx="64" cy="64" r="64" fill="#FFF3E0"/>
  <g transform="translate(64 64)">
    <g>
      <ellipse cx="0" cy="-24" rx="10" ry="18" fill="#FF7043"/>
      <ellipse cx="0" cy="-24" rx="10" ry="18" fill="#FF7043" transform="rotate(60)"/>
      <ellipse cx="0" cy="-24" rx="10" ry="18" fill="#FF7043" transform="rotate(120)"/>
      <ellipse cx="0" cy="-24" rx="10" ry="18" fill="#FF7043" transform="rotate(180)"/>
      <ellipse cx="0" cy="-24" rx="10" ry="18" fill="#FF7043" transform="rotate(240)"/>
      <ellipse cx="0" cy="-24" rx="10" ry="18" fill="#FF7043" transform="rotate(300)"/>
    </g>
    <g opacity="0.85">
      <ellipse cx="0" cy="-18" rx="7" ry="13" fill="#FFAB91" transform="rotate(30)"/>
      <ellipse cx="0" cy="-18" rx="7" ry="13" fill="#FFAB91" transform="rotate(90)"/>
      <ellipse cx="0" cy="-18" rx="7" ry="13" fill="#FFAB91" transform="rotate(150)"/>
      <ellipse cx="0" cy="-18" rx="7" ry="13" fill="#FFAB91" transform="rotate(210)"/>
      <ellipse cx="0" cy="-18" rx="7" ry="13" fill="#FFAB91" transform="rotate(270)"/>
      <ellipse cx="0" cy="-18" rx="7" ry="13" fill="#FFAB91" transform="rotate(330)"/>
    </g>
    <circle cx="0" cy="0" r="10" fill="#FFC107"/>
    <circle cx="0" cy="0" r="6" fill="#FF9800"/>
    <circle cx="-2" cy="-2" r="1.4" fill="#FFECB3"/>
  </g>
</svg>
