<svg xmlns="http://www.w3.org/2000/svg" viewBox="0 0 128 128" aria-hidden="true">
  <circle cx="64" cy="64" r="64" fill="#EDE7F6"/>
  <g transform="translate(64 64)">
    <path d="M0 -4 Q -26 -32 -34 -18 Q -36 -4 -20 4 Q -8 6 0 4 Z" fill="#7B2D8E"/>
    <path d="M0 -4 Q 26 -32 34 -18 Q 36 -4 20 4 Q 8 6 0 4 Z" fill="#7B2D8E"/>
    <path d="M0 4 Q -24 14 -28 26 Q -18 34 -6 24 Q -2 16 0 6 Z" fill="#9C4DAE"/>
    <path d="M0 4 Q 24 14 28 26 Q 18 34 6 24 Q 2 16 0 6 Z" fill="#9C4DAE"/>
    <circle cx="-18" cy="-14" r="4" fill="#F48FB1"/>
    <circle cx="18" cy="-14" r="4" fill="#F48FB1"/>
    <circle cx="-14" cy="18" r="3" fill="#F48FB1"/>
    <circle cx="14" cy="18" r="3" fill="#F48FB1"/>
    <rect x="-1.6" y="-20" width="3.2" height="44" rx="1.6" fill="#311B3F"/>
    <circle cx="0" cy="-22" r="3.2" fill="#311B3F"/>
    <path d="M-2 -24 Q -6 -30 -10 -30" stroke="#311B3F" stroke-width="1.6" fill="none" stroke-linecap="round"/>
    <path d="M2 -24 Q 6 -30 10 -30" stroke="#311B3F" stroke-width="1.6" fill="none" stroke-linecap="round"/>
  </g>
</svg>
