<svg xmlns="http://www.w3.org/2000/svg" viewBox="0 0 128 128" aria-hidden="true">
  <circle cx="64" cy="64" r="64" fill="#FFF8E1"/>
  <g transform="translate(64 68)">
    <rect x="-20" y="-4" width="40" height="32" rx="4" fill="#FFCC80"/>
    <rect x="-20" y="-4" width="40" height="6" rx="3" fill="#FFB74D"/>
    <rect x="-16" y="4" width="32" height="2" rx="1" fill="#E65100" opacity="0.3"/>
    <rect x="-1" y="-18" width="2" height="14" fill="#5D4037"/>
    <path d="M0 -36 Q -8 -26 -6 -18 Q -2 -14 0 -18 Q 2 -14 6 -18 Q 8 -26 0 -36 Z" fill="#FF9800"/>
    <path d="M0 -32 Q -4 -24 -3 -18 Q 0 -14 3 -18 Q 4 -24 0 -32 Z" fill="#FFEB3B"/>
    <circle cx="0" cy="-22" r="2" fill="#FFFFFF" opacity="0.8"/>
    <circle cx="-26" cy="-16" r="1.4" fill="#FFB74D" opacity="0.6"/>
    <circle cx="24" cy="-20" r="1.4" fill="#FFB74D" opacity="0.6"/>
    <circle cx="-24" cy="-30" r="1" fill="#FFB74D" opacity="0.4"/>
  </g>
</svg>
