<svg xmlns="http://www.w3.org/2000/svg" viewBox="0 0 128 128" aria-hidden="true">
  <circle cx="64" cy="64" r="64" fill="#FCE4EC"/>
  <g transform="translate(64 72)">
    <ellipse cx="0" cy="0" rx="36" ry="10" fill="#F48FB1" opacity="0.55"/>
    <path d="M0 -30 C 14 -20 14 -2 0 6 C -14 -2 -14 -20 0 -30 Z" fill="#F06292"/>
    <path d="M0 -30 C 14 -20 14 -2 0 6 C -14 -2 -14 -20 0 -30 Z" fill="#EC407A" transform="rotate(40)"/>
    <path d="M0 -30 C 14 -20 14 -2 0 6 C -14 -2 -14 -20 0 -30 Z" fill="#EC407A" transform="rotate(-40)"/>
    <path d="M0 -28 C 10 -18 10 -2 0 4 C -10 -2 -10 -18 0 -28 Z" fill="#F8BBD0" transform="rotate(20)"/>
    <path d="M0 -28 C 10 -18 10 -2 0 4 C -10 -2 -10 -18 0 -28 Z" fill="#F8BBD0" transform="rotate(-20)"/>
    <circle cx="0" cy="-4" r="5" fill="#FFF3E0"/>
    <circle cx="-4" cy="-2" r="1.6" fill="#F48FB1"/>
    <circle cx="4" cy="-2" r="1.6" fill="#F48FB1"/>
    <circle cx="0" cy="2" r="1.6" fill="#F48FB1"/>
  </g>
</svg>
