<svg xmlns="http://www.w3.org/2000/svg" viewBox="0 0 128 128" aria-hidden="true">
  <circle cx="64" cy="64" r="64" fill="#FFEBEE"/>
  <g transform="translate(64 68)">
    <ellipse cx="0" cy="22" rx="32" ry="4" fill="#D32F2F" opacity="0.15"/>
    <path d="M-26 -8 L -22 22 Q -22 24 -20 24 L 20 24 Q 22 24 22 22 L 26 -8 Z" fill="#E57373"/>
    <path d="M-22 -8 L -18 18 L 18 18 L 22 -8 Z" fill="#EF9A9A"/>
    <ellipse cx="0" cy="-8" rx="26" ry="4" fill="#FFCDD2"/>
    <ellipse cx="0" cy="-8" rx="22" ry="2.5" fill="#FF8A65"/>
    <path d="M22 -2 Q 36 -2 36 8 Q 36 18 22 18" stroke="#E57373" stroke-width="4" fill="none" stroke-linecap="round"/>
    <path d="M-10 -18 Q -14 -28 -8 -34" stroke="#BCAAA4" stroke-width="2.5" fill="none" stroke-linecap="round" opacity="0.7"/>
    <path d="M0 -22 Q -4 -32 2 -38" stroke="#BCAAA4" stroke-width="2.5" fill="none" stroke-linecap="round" opacity="0.7"/>
    <path d="M10 -18 Q 6 -28 12 -34" stroke="#BCAAA4" stroke-width="2.5" fill="none" stroke-linecap="round" opacity="0.7"/>
  </g>
</svg>
